# xmcd CD database file
#
# Track frame offsets:
#	187
#	24865
#	50635
#	70197
#	94405
#	123965
#	146217
#	163327
#	193507
#
# Disc length: 2728 seconds
#
# Revision: 1
# Processed by: cddbd v1.5.2PL0 Copyright (c) Steve Scherf et al.
# Submitted via: CDex 1.70beta2
#
DISCID=810aa609
DTITLE=Various Artist - Master of Jazz 20 Bit HQ CD Special Sampler
DYEAR=1993
DGENRE=Jazz
TTITLE0=You'd Be So Nice To Come Home To
TTITLE1=I'm An Old Cowhand
TTITLE2=Say It
TTITLE3=They Say It's Wonderful
TTITLE4=Satin Doll
TTITLE5=My Foolish Heart
TTITLE6=Alfie's Theme Differently
TTITLE7=Softly, As In A Morning Sunrise
TTITLE8=Hello, Dolly!
EXTD=YEAR: 1993
EXTT0=
EXTT1=
EXTT2=
EXTT3=
EXTT4=
EXTT5=
EXTT6=
EXTT7=
EXTT8=
PLAYORDER=
